<?xml version="1.0" encoding="UTF-8" standalone="no"?>
<svg
   xmlns:dc="http://purl.org/dc/elements/1.1/"
   xmlns:cc="http://creativecommons.org/ns#"
   xmlns:rdf="http://www.w3.org/1999/02/22-rdf-syntax-ns#"
   xmlns:svg="http://www.w3.org/2000/svg"
   xmlns="http://www.w3.org/2000/svg"
   xmlns:sodipodi="http://sodipodi.sourceforge.net/DTD/sodipodi-0.dtd"
   xmlns:inkscape="http://www.inkscape.org/namespaces/inkscape"
   width="130"
   height="180"
   viewBox="0 0 34.395831 47.625001"
   version="1.1"
   id="svg4"
   sodipodi:docname="icon.svg"
   inkscape:version="0.92.4 (5da689c313, 2019-01-14)">
  <metadata
     id="metadata10">
    <rdf:RDF>
      <cc:Work
         rdf:about="">
        <dc:format>image/svg+xml</dc:format>
        <dc:type
           rdf:resource="http://purl.org/dc/dcmitype/StillImage" />
        <dc:title></dc:title>
      </cc:Work>
    </rdf:RDF>
  </metadata>
  <defs
     id="defs8" />
  <sodipodi:namedview
     pagecolor="#ffffff"
     bordercolor="#666666"
     borderopacity="1"
     objecttolerance="10"
     gridtolerance="10"
     guidetolerance="10"
     inkscape:pageopacity="0"
     inkscape:pageshadow="2"
     inkscape:window-width="1600"
     inkscape:window-height="847"
     id="namedview6"
     showgrid="false"
     inkscape:pagecheckerboard="false"
     inkscape:zoom="1.3111111"
     inkscape:cx="65"
     inkscape:cy="90"
     inkscape:window-x="-8"
     inkscape:window-y="-8"
     inkscape:window-maximized="1"
     inkscape:current-layer="svg4" />
  <path
     style="display:inline;opacity:1;fill:#ffffff;fill-opacity:1;stroke:none;stroke-width:0.50628418;stroke-miterlimit:4;stroke-dasharray:none;stroke-opacity:1"
     d="m 8.94146,14.348108 18.05113,0.0102 c 0,0 0.72059,-1.82266 1.63264,-3.03873 0.91206,-1.21608 1.87123,-2.3801697 1.87123,-2.3801697 v 0 l -0.16592,-0.12077 v 0 c 0,0 -0.548,0.64633 -1.13918,1.11348 -0.59117,0.4671597 -1.11574,0.7911597 -1.50746,0.9490097 -0.39171,0.15786 -0.85359,0.23971 -1.20438,0.0351 -0.35079,-0.20462 -0.57296,-0.3274 -0.73081,-0.70158 -0.15786,-0.3741797 -0.32156,-0.7951297 -0.28648,-1.2745397 0.0351,-0.47941 0.16955,-1.47332 0.24555,-1.90012 0.076,-0.4268 0.15268,-0.71395 0.18555,-0.81347 0.0423,-0.12828 0,0 0,0 l -0.28663,-0.10128 c 0,0 -0.0121,0.0614 -0.42132,0.63604 -0.40928,0.57464 -1.05619,1.3077 -1.43037,1.64095 -0.37418,0.33325 -0.60219,0.55542 -0.99975,0.81267 -0.39757,0.25724 -1.74227,1.4148597 -2.8648,-0.30402 -1.12253,-1.71888 -1.69297,-4.4979099 -1.72631,-4.7285699 -0.14713,-1.01789 -0.18827,0.012 -0.2787,0.015 l -0.11575,-0.008 c 0,0 -0.009,-0.007 -0.14932,0.5300999 -0.14056,0.53743 -0.66146,2.24069 -0.66146,2.24069 0,0 -0.41341,0.95084 -0.62012,1.32291 -0.2067,0.37207 -0.97233,1.17952 -1.31133,1.33662 -0.33899,0.15709 -0.91777,0.5126297 -1.71152,0.0661 -0.69453,-0.52916 -1.23601,-1.25393 -1.23601,-1.25393 -0.81851,-1.08745 -2.15162,-2.89878 -2.15162,-2.89878 l 0.21057,0.94605 c 0,0 0.39757,2.05797 0.29233,2.86479 -0.10524,0.8068197 -0.3391,1.4265497 -0.97052,1.6370197 -0.63143,0.21048 -1.46163,0.14032 -2.43216,-0.77173 C 6.05802,9.2970883 4.89765,8.2573083 4.89765,8.2573083 l 0.6868,0.87607 c 0,0 2.26904,2.5576297 3.35737,5.2150997 z M 30.89718,8.9437483 c -0.147316,0.1618641 -0.382556,0.2271803 -0.52543,0.14589 -0.142903,-0.081281 -0.139322,-0.2784162 0.008,-0.4403 0.147321,-0.1618678 0.382569,-0.2271804 0.52544,-0.14588 0.142895,0.081282 0.139314,0.2784096 -0.008,0.44029 z m -4.6717,-2.8178 c -0.08164,0.2042761 -0.296352,0.3312623 -0.47958,0.28363 -0.183217,-0.047634 -0.265569,-0.2518329 -0.18394,-0.4561 0.08163,-0.2042689 0.296334,-0.3312571 0.47956,-0.28364 0.183233,0.047623 0.265595,0.2518323 0.18396,0.45611 z M 18.33743,3.8971684 c -3e-6,0.2211779 -0.154436,0.400477 -0.34494,0.40048 -0.190508,3.4e-6 -0.344947,-0.1792975 -0.34495,-0.40048 -2e-6,-0.2211864 0.154439,-0.4004934 0.34495,-0.40049 0.190507,3e-6 0.344942,0.1793082 0.34494,0.40049 z m -8.27612,1.4017199 c 0.07616,0.1763874 0.03336,0.3645153 -0.0956,0.42019 -0.1289527,0.055675 -0.2952247,-0.042177 -0.37138,-0.21856 -0.07616,-0.1763874 -0.033358,-0.3645153 0.0956,-0.42019 0.1289543,-0.055683 0.2952336,0.042171 0.37139,0.21856 z m -5.0935,2.85289 c 0.086041,0.1398981 0.083355,0.2818239 -0.006,0.31702 -0.08939,0.035163 -0.2316072,-0.04976 -0.31765,-0.18968 -0.086035,-0.139893 -0.083349,-0.2818112 0.006,-0.31701 0.089388,-0.035158 0.2315971,0.049758 0.31764,0.18967 z m 11.87769,36.7890797 -3.82862,-4.91626 -0.005,-9.76391 -3.66735,-3.67382 -0.0359,8.6087 -3.81539,-4.91678 0.009,-15.2027 11.35372,0.0158 z m -3.81878,-20.06735 0.004,-5.96182 -3.67869,0.003 -0.0166,2.26815 z m 5.31297,20.07775 11.25304,-14.57989 0.003,-1.9327 -7.54195,-7.54373 0.003,-1.9637 3.77031,-0.001 0.005,4.35529 3.79012,3.79024 -0.0353,-11.88794 -11.2696,0.005 -0.006,7.28121 7.08115,7.09071 -3.27053,4.26364 c 0,0 -0.061,0.0754 -0.061,-0.0145 0,-0.0899 0.006,-6.17224 0.006,-6.17224 l -3.75481,-3.75378 -0.0114,21.03645 c 0,0 0.0133,0.0587 0.0387,0.0268 z M 31.26757,8.6032183 c 0,0.28768 -0.24061,0.5209 -0.53743,0.5209 -0.29682,0 -0.53744,-0.23321 -0.53744,-0.5209 0,-0.28769 0.24062,-0.5209 0.53744,-0.5209 0.29682,0 0.53743,0.23322 0.53743,0.5209 z m -4.69284,-2.83809 c 0,0.33289 -0.26941,0.60275 -0.60174,0.60275 -0.33234,0 -0.60175,-0.26986 -0.60175,-0.60275 0,-0.33289 0.26941,-0.60275 0.60175,-0.60275 0.33233,0 0.60174,0.26986 0.60174,0.60275 z m -7.883,-2.2544999 c 0,0.39424 -0.29696,0.68903 -0.69388,0.68903 -0.39692,0 -0.74348,-0.29479 -0.74348,-0.68903 0,-0.39424 0.32177,-0.71383 0.71868,-0.71383 0.39691,0 0.71868,0.31959 0.71868,0.71383 z m -8.40537,1.6182399 c 0,0.33289 -0.26941,0.60275 -0.60175,0.60275 -0.33234,0 -0.60175,-0.26986 -0.60175,-0.60275 0,-0.33289 0.26941,-0.6027499 0.60175,-0.6027499 0.33234,0 0.60175,0.2698599 0.60175,0.6027499 z m -5.0559,2.85907 c 0,0.28768 -0.24061,0.5209 -0.53743,0.5209 -0.29682,0 -0.53744,-0.23321 -0.53744,-0.5209 0,-0.28769 0.24062,-0.5209 0.53744,-0.5209 0.29682,0 0.53743,0.23322 0.53743,0.5209 z"
     inkscape:connector-curvature="0"
     inkscape:label="Logo"
     sodipodi:nodetypes="ccccccccccccsccccscscccccccccccscccccccccccccccccccccccccccccccccccccccccccccccccccccccccccccscccccsssssssssssssssssssssssss"
     id="path2" />
</svg>
